<svg width="810" height="242" viewBox="0 0 810 242" fill="none" xmlns="http://www.w3.org/2000/svg">
    <style>
        path {
            fill: #8BB724;
        }

        @media (prefers-color-scheme: dark) {
            path {
                fill: #CEF4B0;
            }
        }
    </style>
    <path fill-rule="evenodd" clip-rule="evenodd"
        d="M0 0.21875V196.096H135.806L183.598 133.942L231.637 196.096H246.014V241.914H261.22V175.311C264.26 179.585 267.885 183.419 272.097 186.796C282.355 195.022 295.244 198.959 310.369 198.959C320.259 198.959 329.233 196.949 337.163 192.79C344.94 188.712 351.464 183.142 356.686 176.115C361.845 169.174 365.737 161.17 368.402 152.163C371.062 143.173 372.382 133.755 372.382 123.93C372.382 113.432 371.024 103.647 368.258 94.611C365.494 85.5802 361.448 77.6326 356.073 70.8429C350.675 64.0242 344.108 58.6892 336.404 54.8846C328.602 51.0319 319.889 49.1612 310.369 49.1612C303.104 49.1612 296.259 50.2334 289.872 52.4259C283.54 54.5995 277.856 57.6938 272.864 61.726C268.438 65.3005 264.556 69.445 261.22 74.1444V52.2851H246.014V189.92L193.271 121.815L245.979 52.2851H227.186L183.633 109.617L141.065 52.2851H121.749L174.177 121.814L128.649 180.889H15.2066V101.856H126.368V86.6489H15.2066V15.4254H133.397V0.21875H0ZM263.975 78.9811C264.052 78.8624 264.13 78.7437 264.209 78.6255C264.185 78.6608 264.162 78.6962 264.138 78.7315C264.084 78.8146 264.029 78.8978 263.975 78.9811ZM259.865 99.1986C259.805 99.3898 259.747 99.5812 259.689 99.7729C259.747 99.5812 259.805 99.3898 259.865 99.1986ZM260.232 152.71C260.329 153.011 260.428 153.31 260.529 153.608C260.428 153.31 260.329 153.011 260.232 152.71ZM385.812 196.096H401.019V115.339C401.019 108.534 401.99 101.902 403.932 95.4287C405.836 89.0815 408.746 83.5609 412.642 78.8082C416.46 74.1494 421.339 70.4381 427.375 67.6944C433.156 65.0668 440.251 63.8734 448.844 64.3598L454.126 64.6588V49.2687L449.235 49.1623C440.842 48.9799 433.284 49.8856 426.651 52.0008C420.202 54.057 414.511 56.9027 409.654 60.5936C406.343 63.1105 403.458 65.946 401.019 69.1005V52.2851H385.812V196.096ZM450.428 124.19C450.428 123.985 450.428 123.78 450.43 123.575C450.428 123.78 450.428 123.985 450.428 124.19ZM450.431 125.025C450.43 124.926 450.429 124.828 450.429 124.729C450.429 124.828 450.43 124.926 450.431 125.025ZM509.003 189.011L508.92 189.012C508.774 189.013 508.628 189.013 508.482 189.013C508.656 189.013 508.829 189.013 509.003 189.011ZM480.19 193.537C488.411 197.406 498.09 199.137 509.045 198.959C525.299 198.951 539.297 194.348 550.714 184.93C562.278 175.39 568.941 162.029 570.978 145.363L571.664 139.757H556.515L555.866 144.001C553.749 157.842 548.447 167.631 540.387 174.034C532.142 180.583 521.628 184.013 508.482 184.013C499.492 184.013 492.234 182.458 486.507 179.595C480.598 176.64 475.849 172.641 472.174 167.589C468.422 162.43 465.588 156.294 463.73 149.103C462.218 143.254 461.248 136.967 460.837 130.232H572.392L572.574 125.42C572.938 115.766 571.982 106.434 569.689 97.442C567.376 88.3756 563.651 80.2415 558.481 73.0977C553.237 65.851 546.477 60.0607 538.284 55.7286C529.873 51.2812 520.054 49.1612 509.003 49.1612C500.819 49.1612 492.847 50.8785 485.125 54.2689C477.334 57.6891 470.51 62.6755 464.672 69.1727C458.821 75.6835 454.184 83.5696 450.7 92.7365C447.149 102.081 445.428 112.592 445.428 124.19C445.428 134.464 446.6 144.136 448.976 153.186C451.373 162.314 455.097 170.371 460.206 177.278C465.401 184.301 472.091 189.726 480.19 193.537ZM554.205 98.1879C555.847 103.555 556.854 109.164 557.218 115.025H461.067C461.831 108.237 463.318 102.109 465.491 96.6112C468.249 89.6341 471.813 83.7846 476.139 78.9867C480.452 74.2035 485.429 70.5958 491.095 68.1124C496.763 65.6278 502.887 64.3678 509.523 64.3678C517.58 64.3678 524.444 65.8561 530.244 68.6795C536.192 71.5754 541.107 75.4946 545.053 80.4467C549.055 85.4681 552.117 91.3608 554.205 98.1879ZM670.615 96.8556V101.856H685.822V96.8556C685.822 80.9766 681.171 68.3982 670.88 60.3716C661.057 52.7095 648.046 49.1612 632.4 49.1612C623.686 49.1612 616.04 50.2461 609.604 52.5862C603.41 54.8385 598.125 57.826 593.901 61.6477C589.766 65.3882 586.672 69.6557 584.789 74.4674C583.039 78.9394 582.102 83.3765 582.102 87.744C582.102 95.5629 583.488 102.373 586.72 107.759C589.951 113.144 594.91 117.145 601.207 119.906C605.282 121.756 609.848 123.394 614.886 124.833C619.825 126.244 625.532 127.736 631.999 129.309L632.003 129.31C637.719 130.696 643.348 132.081 648.89 133.467C654.097 134.769 658.585 136.491 662.398 138.592C666.064 140.613 668.97 143.141 671.202 146.164C673.089 148.721 674.26 152.358 674.26 157.513C674.26 162.437 673.113 166.278 671.078 169.297C668.799 172.68 665.906 175.429 662.356 177.574C658.692 179.788 654.566 181.418 649.938 182.438C645.144 183.494 640.515 184.013 636.045 184.013C620.918 184.013 610.128 180.64 602.933 174.632C596.038 168.874 592.102 159.482 592.102 145.277V140.277H576.896V145.277C576.896 162.96 581.697 176.944 592.309 186.041C602.68 194.93 617.541 198.959 636.045 198.959C642.154 198.959 648.291 198.265 654.449 196.886C660.782 195.468 666.542 193.131 671.676 189.837C676.915 186.476 681.181 182.109 684.437 176.781C687.881 171.146 689.466 164.467 689.466 156.992C689.466 149.957 688.092 143.735 684.921 138.706C682.002 134.075 678.172 130.254 673.489 127.265C668.967 124.379 663.921 122.152 658.386 120.557C653.233 119.073 648.038 117.632 642.8 116.235L642.789 116.232L642.778 116.23C635.481 114.318 629.09 112.666 623.608 111.274C618.352 109.939 613.508 108.364 609.067 106.557C605.295 104.956 602.437 102.742 600.332 99.9578C598.546 97.5958 597.309 93.749 597.309 87.744C597.309 87.1502 597.528 85.4835 598.231 82.3203C598.716 80.14 599.927 77.6613 602.18 74.8826C604.146 72.4587 607.417 69.9977 612.39 67.6716C616.834 65.5932 623.382 64.3678 632.4 64.3678C638.465 64.3678 643.889 65.0239 648.704 66.2868C653.407 67.5205 657.315 69.4471 660.527 72.0019C663.683 74.5123 666.149 77.7152 667.922 81.7044C669.645 85.5815 670.615 90.5734 670.615 96.8556ZM791.149 96.8556V101.856H806.355V96.8556C806.355 80.9766 801.704 68.3982 791.414 60.3716C781.591 52.7095 768.58 49.1612 752.934 49.1612C744.219 49.1612 736.573 50.2461 730.138 52.5862C723.944 54.8385 718.658 57.826 714.434 61.6477C710.3 65.3882 707.205 69.6557 705.323 74.4674C703.573 78.9394 702.636 83.3765 702.636 87.744C702.636 95.5629 704.022 102.373 707.253 107.759C710.484 113.143 715.442 117.144 721.739 119.905C725.814 121.756 730.381 123.393 735.419 124.833C740.358 126.244 746.065 127.736 752.533 129.309L752.537 129.31C758.253 130.696 763.882 132.081 769.424 133.467C774.631 134.769 779.118 136.491 782.932 138.592C786.598 140.613 789.504 143.141 791.735 146.164C793.622 148.721 794.793 152.358 794.793 157.513C794.793 162.437 793.647 166.278 791.612 169.297C789.333 172.68 786.44 175.429 782.89 177.574C779.226 179.788 775.1 181.418 770.471 182.438C765.677 183.494 761.049 184.013 756.578 184.013C741.452 184.013 730.662 180.64 723.467 174.632C716.572 168.874 712.636 159.482 712.636 145.277V140.277H697.429V145.277C697.429 162.96 702.23 176.944 712.843 186.041C723.214 194.93 738.075 198.959 756.578 198.959C762.688 198.959 768.824 198.265 774.983 196.886C781.316 195.468 787.076 193.131 792.21 189.837C797.449 186.476 801.715 182.109 804.971 176.781C808.415 171.146 810 164.468 810 156.992C810 149.956 808.625 143.735 805.455 138.706C802.535 134.075 798.706 130.254 794.023 127.265C789.501 124.379 784.454 122.152 778.919 120.557C773.767 119.073 768.572 117.632 763.334 116.235L763.323 116.232L763.312 116.23C756.014 114.318 749.624 112.666 744.142 111.274C738.885 109.939 734.041 108.364 729.6 106.556C725.828 104.955 722.97 102.741 720.866 99.9578C719.08 97.5958 717.842 93.749 717.842 87.744C717.842 87.1502 718.062 85.4835 718.765 82.3203C719.249 80.14 720.461 77.6613 722.714 74.8826C724.679 72.4587 727.951 69.9977 732.924 67.6716C737.367 65.5932 743.916 64.3678 752.934 64.3678C758.999 64.3678 764.422 65.0239 769.237 66.2868C773.941 67.5205 777.849 69.4471 781.061 72.0019C784.217 74.5123 786.683 77.7151 788.456 81.7044C790.179 85.5815 791.149 90.5734 791.149 96.8556ZM310.369 184.013C295.34 184.013 283.656 178.925 274.806 168.911C265.996 158.942 261.22 144.203 261.22 123.93C261.22 115.725 262.368 107.984 264.639 100.684C266.907 93.3954 270.156 87.0894 274.352 81.7061C278.496 76.389 283.609 72.1683 289.742 69.0235C295.725 65.9554 302.564 64.3678 310.369 64.3678C318.371 64.3678 325.129 65.9642 330.795 68.9862C336.622 72.0939 341.411 76.3052 345.212 81.6575C349.103 87.1357 352.079 93.4595 354.108 100.681C356.144 107.93 357.175 115.672 357.175 123.93C357.175 131.309 356.233 138.655 354.341 145.979C352.477 153.19 349.621 159.601 345.798 165.256C342.049 170.8 337.253 175.33 331.357 178.868C325.775 182.217 318.854 184.013 310.369 184.013Z"
        fill="#CEF4B0" />
</svg>