<svg width="446" height="668" viewBox="0 0 446 668" fill="none" xmlns="http://www.w3.org/2000/svg">
    <style>
        path {
            fill: #8BB724;
        }

        @media (prefers-color-scheme: dark) {
            path {
                fill: #CEF4B0;
            }
        }
    </style>
<path fill-rule="evenodd" clip-rule="evenodd" d="M222.89 0.667969H111.778C50.4131 0.667969 0.666992 50.4141 0.666992 111.777C0.666992 172.832 49.9053 222.383 110.837 222.887C49.9053 223.387 0.666992 272.941 0.666992 333.992C0.666992 395.359 50.4131 445.105 111.778 445.105H222.89V336.297C224.117 396.602 273.384 445.105 333.977 445.105C395.343 445.105 445.09 395.359 445.09 333.992C445.09 272.941 395.851 223.391 334.918 222.887C395.851 222.387 445.09 172.832 445.09 111.777C445.09 50.4141 395.343 0.667969 333.977 0.667969H222.89ZM222.89 222.891V331.688C224.108 271.828 272.664 223.594 332.646 222.891C333.089 222.891 333.532 222.883 333.977 222.883L332.646 222.891H222.89ZM222.89 445.117V556.227C222.89 617.594 173.144 667.34 111.778 667.34C50.4131 667.34 0.666992 617.594 0.666992 556.227C0.666992 494.863 50.4131 445.117 111.778 445.117H222.89Z" fill="#CEF4B0"/>
</svg>
