<svg width="49" height="49" viewBox="0 0 49 49" fill="none" xmlns="http://www.w3.org/2000/svg">
    <style>
        path {
            fill: #8BB724;
        }

        @media (prefers-color-scheme: dark) {
            path {
                fill: #CEF4B0;
            }
        }
    </style>
    <path fill-rule="evenodd" clip-rule="evenodd"
        d="M3.33789 0.46875C1.68115 0.46875 0.337891 1.8125 0.337891 3.46875V45.1426C0.337891 46.7988 1.68115 48.1426 3.33789 48.1426H45.0112C46.0234 48.1426 46.9185 47.6406 47.4619 46.873C47.8081 46.3848 48.0112 45.7871 48.0112 45.1426V3.46875C48.0112 2.60742 47.6475 1.83008 47.0649 1.28125C46.5278 0.777344 45.8057 0.46875 45.0112 0.46875H3.33789ZM10.4023 19.1855H6.20898V21.7266H7.24805V30.625H5.6709V33.166H11.9424V30.625H10.1055V28.5195C10.2979 28.6016 10.4946 28.6738 10.6953 28.7344C10.8369 28.7754 10.9805 28.8125 11.126 28.8438C11.4785 28.9238 11.8589 28.9648 12.2671 28.9648C12.9907 28.9648 13.6558 28.834 14.2617 28.5742C14.874 28.3086 15.3999 27.9492 15.8389 27.498C16.2778 27.041 16.6182 26.5059 16.8594 25.8926C17.1069 25.2812 17.2305 24.6289 17.2305 23.9355C17.2305 23.4863 17.1763 23.0527 17.0674 22.6367C17.0103 22.416 16.9375 22.1992 16.8501 21.9883C16.6025 21.375 16.2563 20.8398 15.811 20.3828C15.3657 19.9238 14.8398 19.5625 14.2339 19.2969C13.6279 19.0312 12.9722 18.8984 12.2671 18.8984C11.9395 18.8984 11.6206 18.9375 11.3115 19.0195C11.0024 19.0938 10.6992 19.1953 10.4023 19.3242V19.1855ZM10.9683 21.7656C11.3086 21.5605 11.6733 21.459 12.063 21.459C12.3848 21.459 12.6875 21.5176 12.9722 21.6348C13.2568 21.7461 13.5039 21.9102 13.7144 22.127C13.9248 22.3359 14.0884 22.5957 14.2061 22.9062C14.3296 23.2148 14.3916 23.5645 14.3916 23.9531C14.3916 24.1523 14.3721 24.3418 14.333 24.5234C14.3027 24.666 14.2603 24.8047 14.2061 24.9375C14.0825 25.2344 13.9155 25.4941 13.7051 25.7168C13.4946 25.9336 13.2476 26.1035 12.9629 26.2266C12.6782 26.3438 12.3784 26.4023 12.063 26.4023C11.855 26.4023 11.6577 26.3789 11.4707 26.332C11.2734 26.2832 11.0874 26.207 10.9126 26.1055C10.5723 25.9082 10.3032 25.6523 10.1055 25.3359V22.627C10.3403 22.2559 10.6279 21.9688 10.9683 21.7656ZM29.0498 19.1855H24.5039V21.7266H26.0439V25.4941C25.9077 25.8828 25.6885 26.1934 25.3853 26.4219C25.082 26.6504 24.7451 26.7656 24.374 26.7656C23.8481 26.7656 23.4214 26.6074 23.0938 26.293C22.7661 25.9707 22.6021 25.4883 22.6021 24.8438V19.1855H18.353V21.7266H19.6055V24.8438C19.6055 25.5312 19.7046 26.1289 19.9023 26.6348C20.1064 27.1426 20.3818 27.5664 20.728 27.9062C20.9331 28.1016 21.1582 28.2676 21.4033 28.4043C21.5791 28.5039 21.7656 28.5879 21.9619 28.6582C22.4321 28.8242 22.9331 28.9082 23.4648 28.9082C24.04 28.9082 24.5474 28.8281 24.9863 28.668C25.4253 28.5059 25.8091 28.2773 26.1367 27.9805V28.7969H30.2095V26.2539H29.0498V19.1855ZM37.7148 28.7227C38.061 28.6367 38.4077 28.4941 38.7539 28.2969V28.3418C38.7539 28.793 38.6953 29.168 38.5776 29.4648C38.46 29.7617 38.2964 29.9961 38.0859 30.1699C37.8818 30.3496 37.6377 30.4766 37.353 30.5508C37.0747 30.625 36.7686 30.6621 36.4346 30.6621C36.0894 30.6621 35.7622 30.6367 35.4526 30.5859C35.2129 30.5449 34.9834 30.4902 34.7646 30.4199C34.2637 30.2656 33.7998 30.0527 33.373 29.7812L32.2134 31.8398C32.77 32.2305 33.4038 32.5391 34.1152 32.7676C34.8325 32.9961 35.6118 33.1113 36.4531 33.1113C37.1333 33.1113 37.7827 33.0156 38.4014 32.8242C39.02 32.6367 39.561 32.3496 40.0249 31.9609C40.4951 31.5762 40.8691 31.0879 41.1475 30.4941C41.4258 29.9062 41.5649 29.209 41.5649 28.3984V19.1855H38.7539V19.3906C38.4321 19.2422 38.0859 19.123 37.7148 19.0371C37.3501 18.9512 36.9478 18.9043 36.5088 18.8984C35.7915 18.9043 35.1265 19.0371 34.5142 19.2969C33.9019 19.5566 33.376 19.9121 32.937 20.3633C32.498 20.8086 32.1548 21.332 31.9072 21.9316C31.666 22.5254 31.5454 23.1602 31.5454 23.834C31.5454 24.5508 31.6724 25.2148 31.9258 25.8281C32.1792 26.4414 32.5317 26.9727 32.9834 27.4238C33.4409 27.8691 33.9824 28.2188 34.6069 28.4727C35.2314 28.7266 35.915 28.8516 36.6572 28.8516C37.0161 28.8516 37.3687 28.8086 37.7148 28.7227ZM37.9189 25.957C37.5728 26.1738 37.1831 26.2832 36.75 26.2832C36.416 26.2832 36.1035 26.2266 35.813 26.1152C35.5283 25.998 35.2812 25.834 35.0708 25.625C34.8604 25.4141 34.6934 25.1562 34.5698 24.8535C34.4463 24.5508 34.3843 24.2148 34.3843 23.8438C34.3843 23.4902 34.4463 23.1719 34.5698 22.8867C34.6934 22.5957 34.8604 22.3457 35.0708 22.1367C35.2871 21.9258 35.541 21.7656 35.8315 21.6523C36.1221 21.5352 36.4189 21.4746 36.7222 21.4688C37.1489 21.4746 37.5449 21.5918 37.9097 21.8203C38.1499 21.9707 38.3564 22.1562 38.5298 22.377C38.6196 22.4922 38.7007 22.6152 38.7725 22.748L38.7539 25.0859C38.5498 25.4453 38.2715 25.7344 37.9189 25.957Z"
        fill="#CEF4B0" />
</svg>