<svg width="512" height="512" viewBox="0 0 512 512" fill="none" xmlns="http://www.w3.org/2000/svg">
    <style>
        path {
            fill: #8BB724;
        }

        @media (prefers-color-scheme: dark) {
            path {
                fill: #CEF4B0;
            }
        }
    </style>
    <path fill-rule="evenodd" clip-rule="evenodd"
        d="M76.7998 0H435.2C477.615 0 512 34.3848 512 76.8008V435.199C512 477.615 477.615 512 435.2 512H76.7998C34.3848 512 0 477.615 0 435.199V76.8008C0 34.3848 34.3848 0 76.7998 0ZM371 399C348 399 334 387 324 370L284 393C298 421 327 442 372 442C418 442 452 418 452 375C452 334 429 317 388 299L376 294C355 285 346 279 346 265C346 253 355 244 369 244C383 244 392 250 400 265L437 241C422 213 400 202 369 202C326 202 299 230 299 266C299 305 322 323 357 338L369 343C391 353 404 359 404 375C404 389 391 399 371 399ZM155.672 376.74C155.122 375.834 154.566 374.92 154 374L115 395C126 419 148 439 187 439C230 439 259 417 259 367V203H211V369C211 393 201 399 185 399C169.202 399 162.904 388.639 155.672 376.74Z"
        fill="#CEF4B0" />
</svg>