<svg width="563" height="113" viewBox="0 0 563 113" fill="none" xmlns="http://www.w3.org/2000/svg">
    <style>
        path {
            fill: #8BB724;
        }

        @media (prefers-color-scheme: dark) {
            path {
                fill: #CEF4B0;
            }
        }
    </style>
    <path fill-rule="evenodd" clip-rule="evenodd"
        d="M102.92 75.8398L90.3198 8.2793C92.8799 8.2793 96.7598 8 101.96 7.43945C101.96 6.84961 101.919 6.25391 101.836 5.6543C101.736 4.92578 101.576 4.19141 101.355 3.44922C101.018 2.31641 100.54 1.16602 99.9199 0H73.1597L58.2798 65.7598H57.7998L38.7197 0H10.7598L10.2798 4.80078C13.1597 5.75977 17.04 6.59961 21.9199 7.32031L11.3599 76.9199C7.83984 77.5605 4.31982 78.5195 0.799805 79.8008L1.15967 84H28.7598C29.6357 82.3516 30.2295 80.7695 30.541 79.2539L30.6001 78.9492L30.6758 78.4863C30.7158 78.209 30.7466 77.9336 30.7671 77.6602L30.7861 77.3496L30.7969 77.0605L30.7998 76.8008L20.5996 75.8398L30.3198 9.7207L52.1597 78.2402H64.04L79.8799 9.96094L92.7197 77.2793C89.1997 77.9199 86.2397 78.7598 83.8398 79.8008L84.1997 84H111.8C113.16 81.4395 113.84 79.0801 113.84 76.9199L102.92 75.8398ZM161.201 72C158.881 76.1602 154.361 78.2402 147.641 78.2402C141.001 78.2402 136.481 75.8398 134.081 71.0391C132.001 66.7988 130.961 60.7598 130.961 52.9199C130.961 44.7598 132.561 37.5996 135.761 31.4395C139.361 29.7598 143.161 28.9199 147.161 28.9199C151.241 28.9199 154.401 29.5605 156.641 30.8398C162.081 33.959 164.801 41.6797 164.801 54C164.801 61.7598 163.601 67.7598 161.201 72ZM126.881 30.2402C122.241 35.9199 119.921 43.8398 119.921 54C119.921 64.1602 122.241 71.959 126.881 77.4004C131.601 82.8398 138.641 85.5605 148.001 85.5605C157.361 85.5605 164.321 82.6387 168.881 76.7988C173.521 70.959 175.841 62.9199 175.841 52.6797C175.841 42.4395 173.681 34.7188 169.361 29.5195C165.041 24.2402 158.041 21.5996 148.361 21.5996C138.681 21.5996 131.521 24.4805 126.881 30.2402ZM221.932 21.5996C229.612 21.5996 235.172 23.5195 238.612 27.3594C242.052 31.1191 243.772 36.8789 243.772 44.6387C243.772 46.8789 243.452 57.2793 242.812 75.8398L252.892 76.7988C252.892 79.0391 252.212 81.4395 250.852 84H223.252L222.892 79.7988C225.071 79.041 227.223 78.3965 229.346 77.8633C230.808 77.4961 232.257 77.1816 233.692 76.9199C233.212 55.959 232.772 44.3203 232.372 42C232.052 39.5996 231.492 37.5195 230.692 35.7598C230.426 35.1738 230.116 34.6465 229.761 34.1758C229.631 34.0039 229.495 33.8398 229.354 33.6836C229.129 33.4336 228.889 33.2031 228.635 32.9941C228.17 32.6113 227.656 32.293 227.092 32.0391C225.492 31.3203 223.372 30.959 220.732 30.959C215.452 30.959 210.332 32.2402 205.372 34.7988C204.892 53.0391 204.572 66.7188 204.412 75.8398L214.492 76.7988C214.492 77.9238 214.32 79.0898 213.977 80.2949C213.637 81.4902 213.129 82.7246 212.452 84H184.852L184.492 79.7988C188.172 78.5195 191.772 77.5605 195.292 76.9199C194.812 56.5996 194.412 41.5605 194.092 31.7988C193.465 31.7656 192.856 31.7266 192.265 31.6816C191.593 31.6309 190.944 31.5742 190.318 31.5117C189.904 31.4707 189.5 31.4258 189.107 31.3789C188.68 31.3301 188.264 31.2754 187.861 31.2188C186.222 30.9844 184.779 30.6992 183.532 30.3594L184.012 24.1191C188.332 22.9199 194.612 22.3203 202.852 22.3203C203.812 23.7598 204.532 25.8398 205.012 28.5605C208.452 26.7188 211.892 25.1191 215.332 23.7598C218.852 22.3203 221.052 21.5996 221.932 21.5996ZM300.797 76.4395L290.117 76.6797C280.357 76.6797 274.757 75.4004 273.317 72.8398C275.157 69.959 276.677 67.2793 277.877 64.7988C279.307 65.0703 280.643 65.2754 281.886 65.4141C283.216 65.5645 284.44 65.6387 285.557 65.6387C292.437 65.6387 298.237 63.9199 302.957 60.4805C307.677 56.959 310.037 51.1992 310.037 43.1992C310.037 38.0801 308.597 33.6797 305.717 30L319.517 32.2793C320.717 31.0801 321.317 28.8789 321.317 25.6797C321.317 23.8398 320.557 22.9199 319.037 22.9199C312.877 22.9199 306.597 23.5605 300.197 24.8398C296.517 22.6797 291.317 21.5996 284.597 21.5996C277.877 21.5996 272.277 23.4395 267.797 27.1191C263.317 30.7988 261.077 36.1602 261.077 43.1992C261.077 52 264.277 58.3203 270.677 62.1602C266.357 65.6797 263.197 69.2793 261.197 72.959C261.437 73.8398 262.597 75.4395 264.677 77.7598C266.757 80 268.157 81.3594 268.877 81.8398C267.997 82.4805 266.117 84.6387 263.237 88.3203C260.437 92.0801 259.037 94.4004 259.037 95.2793C259.037 98.959 260.357 102.199 262.997 105C265.637 107.799 268.837 109.799 272.597 111C276.357 112.279 280.397 112.92 284.717 112.92C289.117 112.92 293.837 112 298.877 110.16C303.917 108.32 308.237 105.561 311.837 101.879C315.517 98.2793 317.357 94.3594 317.357 90.1191C317.357 81 311.837 76.4395 300.797 76.4395ZM306.557 91.7988C306.557 93.457 306.366 95.0762 305.985 96.6562C305.814 97.3652 305.604 98.0664 305.357 98.7598C303.357 100.76 300.357 102.4 296.357 103.68C292.437 104.959 288.517 105.6 284.597 105.6C280.757 105.6 277.357 104.84 274.397 103.32C271.437 101.799 269.957 99.4805 269.957 96.3594C269.957 96.2754 269.984 96.1211 270.039 95.8926C270.079 95.7285 270.133 95.5273 270.202 95.2891C270.4 94.5996 270.718 93.5957 271.157 92.2793C272.037 89.959 273.557 87.0801 275.717 83.6387C276.341 83.6973 277.227 83.748 278.376 83.793C279.641 83.8418 281.224 83.8828 283.125 83.9141C286.595 83.9707 291.126 84 296.717 84C299.597 84 301.957 84.7188 303.797 86.1602C304.432 86.6562 304.957 87.2051 305.373 87.8066C305.816 88.4473 306.135 89.1484 306.33 89.9082C306.481 90.502 306.557 91.1328 306.557 91.7988ZM285.557 28.7988C294.677 28.7988 299.237 33.7598 299.237 43.6797C299.237 53.5195 294.797 58.4395 285.917 58.4395C281.357 58.4395 277.877 57.1191 275.477 54.4805C273.077 51.8398 271.877 48.0801 271.877 43.1992C271.877 33.5996 276.437 28.7988 285.557 28.7988ZM355.532 78.2402C362.252 78.2402 366.772 76.1602 369.092 72C371.492 67.7598 372.692 61.7598 372.692 54C372.692 41.6797 369.972 33.959 364.532 30.8398C362.292 29.5605 359.132 28.9199 355.052 28.9199C351.052 28.9199 347.252 29.7598 343.652 31.4395C340.452 37.5996 338.852 44.7598 338.852 52.9199C338.852 60.7598 339.892 66.7988 341.972 71.0391C344.372 75.8398 348.892 78.2402 355.532 78.2402ZM327.812 54C327.812 43.8398 330.132 35.9199 334.772 30.2402C339.412 24.4805 346.572 21.5996 356.252 21.5996C365.932 21.5996 372.932 24.2402 377.252 29.5195C381.572 34.7188 383.732 42.4395 383.732 52.6797C383.732 62.9199 381.412 70.959 376.772 76.7988C372.212 82.6387 365.252 85.5605 355.892 85.5605C346.532 85.5605 339.492 82.8398 334.772 77.4004C330.132 71.959 327.812 64.1602 327.812 54ZM433.662 72C431.342 76.1602 426.822 78.2402 420.102 78.2402C413.462 78.2402 408.942 75.8398 406.542 71.0391C404.462 66.7988 403.422 60.7598 403.422 52.9199C403.422 44.7598 405.022 37.5996 408.222 31.4395C411.822 29.7598 415.622 28.9199 419.622 28.9199C423.702 28.9199 426.862 29.5605 429.102 30.8398C434.542 33.959 437.262 41.6797 437.262 54C437.262 61.7598 436.062 67.7598 433.662 72ZM399.342 30.2402C394.702 35.9199 392.382 43.8398 392.382 54C392.382 64.1602 394.702 71.959 399.342 77.4004C404.062 82.8398 411.102 85.5605 420.462 85.5605C429.822 85.5605 436.782 82.6387 441.342 76.7988C445.982 70.959 448.302 62.9199 448.302 52.6797C448.302 42.4395 446.142 34.7188 441.822 29.5195C437.502 24.2402 430.502 21.5996 420.822 21.5996C411.142 21.5996 403.982 24.4805 399.342 30.2402ZM466.913 76.3203C469.713 77.5195 473.113 78.1191 477.113 78.1191C481.193 78.1191 484.393 77.3594 486.713 75.8398C489.033 74.3203 490.193 72.2402 490.193 69.5996C490.193 66.959 489.113 64.7598 486.953 63C484.793 61.2402 482.153 59.6797 479.033 58.3203C477.765 57.7676 476.497 57.2012 475.229 56.6211C473.376 55.7754 471.525 54.9023 469.673 54C466.553 52.4805 463.913 50.4805 461.753 48C459.593 45.5195 458.513 42.6387 458.513 39.3594C458.513 33.8398 460.353 29.5195 464.033 26.4004C467.713 23.1992 472.793 21.5996 479.273 21.5996C485.833 21.5996 491.993 23.0801 497.753 26.0391C497.77 26.2129 497.786 26.4492 497.799 26.75C497.824 27.2969 497.843 28.0547 497.855 29.0234C497.867 29.9824 497.873 31.1484 497.873 32.5195C497.873 35.959 497.513 38.9199 496.793 41.4004C494.873 42.0391 492.593 42.3594 489.953 42.3594L485.993 30.1191C484.233 29.2402 481.833 28.7988 478.793 28.7988C477.456 28.7988 476.24 28.9629 475.147 29.2891C473.822 29.6855 472.677 30.3223 471.713 31.1992C471.27 31.582 470.883 31.9922 470.552 32.4297C469.566 33.7324 469.073 35.2832 469.073 37.0801C469.073 39.4004 470.153 41.4395 472.313 43.1992C473.495 44.127 474.8 45.0117 476.227 45.8535C477.504 46.6055 478.879 47.3203 480.353 48C483.473 49.3594 486.593 50.8398 489.713 52.4395C492.833 53.959 495.473 56 497.633 58.5605C499.873 61.0391 500.993 63.9199 500.993 67.1992C500.993 72.959 498.753 77.4805 494.273 80.7598C489.873 83.959 484.433 85.5605 477.953 85.5605C476.858 85.5605 475.74 85.5059 474.599 85.3984C473.972 85.3398 473.338 85.2637 472.698 85.1719C470.754 84.8906 468.746 84.459 466.673 83.8789C462.673 82.6797 459.313 81.1602 456.593 79.3203C456.593 73.959 457.073 69.1992 458.033 65.0391C459.873 64.7188 462.353 64.5605 465.473 64.5605L466.913 76.3203ZM558.25 72.2402C550.73 75.5996 545.21 77.2793 541.69 77.2793C534.65 77.2793 529.73 75.1602 526.93 70.9199C524.21 66.6797 522.81 60.5195 522.73 52.4395L561.37 53.0391C561.77 52.6387 562.29 51.8789 562.93 50.7598C562.93 41.8789 560.97 34.7988 557.05 29.5195C553.21 24.2402 547.61 21.5996 540.25 21.5996C530.73 21.5996 523.57 24.4805 518.77 30.2402C514.05 35.9199 511.69 43.7598 511.69 53.7598C511.69 63.7598 514.13 71.5605 519.01 77.1602C523.89 82.6797 530.97 85.4395 540.25 85.4395C541.93 85.4395 544.73 84.7598 548.65 83.4004C552.57 82.0391 556.57 80.1602 560.65 77.7598C560.57 76.1602 559.77 74.3203 558.25 72.2402ZM549.13 33.3594C551.05 36.2402 552.01 40.3203 552.01 45.5996C538.97 45.9199 529.29 46.1191 522.97 46.1992C523.61 41.1602 525.13 36.2402 527.53 31.4395C531.05 29.7598 535.05 28.9199 539.53 28.9199C544.01 28.9199 547.21 30.4004 549.13 33.3594Z"
        fill="#CEF4B0" />
</svg>