<svg width="800" height="801" viewBox="0 0 800 801" fill="none" xmlns="http://www.w3.org/2000/svg">
    <style>
        path {
            fill: #8BB724;
        }

        @media (prefers-color-scheme: dark) {
            path {
                fill: #CEF4B0;
            }
        }
    </style>
    <path fill-rule="evenodd" clip-rule="evenodd"
        d="M800 400.967C800 621.881 620.914 800.967 400 800.967C179.086 800.967 0 621.881 0 400.967C0 180.053 179.086 0.966797 400 0.966797C620.914 0.966797 800 180.053 800 400.967ZM427.102 203.561C447.275 224.418 487.39 265.892 506.922 352.092C509.45 366.74 510.77 381.571 510.867 396.436C511.328 485.545 464.305 541.436 438.148 565.6L437.586 566.107C432.627 570.72 427.379 575.013 421.875 578.959L421.094 579.467C416.59 599.716 413.199 620.198 410.937 640.818H401.297C398.734 612.998 395.133 586.669 394.737 583.775C394.718 583.634 394.707 583.549 394.703 583.521V583.607L393.305 582.615C381 573.639 290.015 503.232 295.648 385.076C301.687 258.389 375.922 196.1 390.39 184.787C399.734 174.818 400.109 171.006 400.836 161.123C400.99 161.481 401.128 161.846 401.238 162.135C401.284 162.256 401.325 162.363 401.359 162.451C401.359 162.451 408.484 180.029 415.515 189.912C416.975 193.091 421.179 197.438 427.102 203.561ZM405.742 350.217C400.273 350.186 400.273 515.904 400.273 515.904C400.273 528.795 407.937 563.061 415.531 563.975C415.531 563.975 410.008 350.217 405.742 350.217Z"
        fill="#CEF4B0" />
</svg>