<svg width="701" height="700" viewBox="0 0 701 700" fill="none" xmlns="http://www.w3.org/2000/svg">
    <style>
        path {
            fill: #8BB724;
        }

        @media (prefers-color-scheme: dark) {
            path {
                fill: #CEF4B0;
            }
        }
    </style>
<path fill-rule="evenodd" clip-rule="evenodd" d="M0.864746 253.332C0.864746 164.658 0.864746 120.321 18.122 86.4515C33.302 56.6592 57.524 32.4372 87.3162 17.2572C121.185 0 165.523 0 254.197 0H447.532C536.207 0 580.545 0 614.412 17.2572C644.205 32.4372 668.427 56.6592 683.607 86.4515C700.865 120.321 700.865 164.658 700.865 253.332V446.667C700.865 535.342 700.865 579.68 683.607 613.547C668.427 643.34 644.205 667.562 614.412 682.742C580.545 700 536.207 700 447.532 700H254.197C165.523 700 121.185 700 87.3162 682.742C57.524 667.562 33.302 643.34 18.122 613.547C0.864746 579.68 0.864746 535.342 0.864746 446.667V253.332ZM367.027 205.846L279.685 353.706L373.13 510.714C375.072 514.274 373.13 515.061 370.315 515.061H303.635C298.937 515.061 295.65 514.891 293.772 511.679C287.505 499.156 281.245 486.714 274.987 474.351C268.722 461.994 262.07 449.391 255.032 436.544C247.987 423.706 241.022 410.704 234.135 397.534C229.476 407.086 224.428 416.638 219.38 426.189L219.379 426.19C217.64 429.481 215.901 432.773 214.177 436.064C207.442 448.909 200.79 461.671 194.22 474.351C187.646 487.039 180.916 499.641 174.029 512.159C172.774 515.049 170.579 515.346 167.453 515.346H103.121C100.594 515.346 100.289 513.446 101.713 511.196L192.342 358.521L104.06 205.364C102.456 203.179 103.836 200.851 106.408 201.029H172.619C175.486 200.869 178.019 201.949 179.663 204.401C185.298 217.246 191.559 230.091 198.446 242.931C205.327 255.776 212.295 268.461 219.342 280.979C226.387 293.501 233.352 306.184 239.3 319.029C245.557 305.866 251.897 293.024 258.317 280.499C264.732 267.976 271.305 255.374 278.04 242.691C284.77 230.011 291.265 217.409 297.527 204.884C298.36 202.136 300.35 200.744 303.162 201.029H364.677C367.027 201.029 367.997 204.236 367.027 205.846ZM395.197 467.13C417.002 504.908 460.38 521.96 501.792 521.312C533.435 521.168 565.067 515.035 594.3 502.53C596.077 501.693 597.235 499.713 597.12 497.713C596.921 494.451 596.687 491.19 596.453 487.929C595.846 479.48 595.24 471.028 595.24 462.555V177.915C595.47 176.256 594.04 174.788 592.422 175.025H533.255C531.377 175.025 530.437 176.154 530.437 178.397V273.277C477.925 268.452 422.64 286.832 395.197 335.888C384.562 355.113 379.055 376.875 379.232 398.98C379.23 426.277 384.552 448.992 395.197 467.13ZM530.437 330.107V461.59C485.205 475.16 444.895 442.852 445.912 396.09C445.907 350.86 487.547 318.193 530.437 330.107Z" fill="#CEF4B0"/>
</svg>
